<svg width="37" height="37" viewBox="0 0 37 37" fill="none" xmlns="http://www.w3.org/2000/svg">
<ellipse cx="24.324" cy="24.9933" rx="10.125" ry="10.3058" stroke="white" stroke-width="1.5" stroke-linecap="round" stroke-linejoin="round"/>
<path d="M31.4602 32.2539L34.3937 35.1874" stroke="white" stroke-width="1.5" stroke-linecap="round" stroke-linejoin="round"/>
<ellipse cx="24.3126" cy="25.125" rx="7.3125" ry="7.125" stroke="white" stroke-width="1.5" stroke-linecap="round" stroke-linejoin="round"/>
<path d="M32.3751 15.375C33.4688 15.375 34.2501 16.2955 34.2501 17.2159V18.75" stroke="white" stroke-width="1.5" stroke-linecap="round" stroke-linejoin="round"/>
<path d="M15.875 35.25C14.7813 35.25 14 34.3295 14 33.4091V31.875" stroke="white" stroke-width="1.5" stroke-linecap="round" stroke-linejoin="round"/>
<path d="M11.2998 27C11.1873 26.6932 11.0748 26.3864 11.0748 26.0795V24.5455C11.0748 24.2386 11.1873 23.9318 11.1873 23.625" stroke="white" stroke-width="1.5" stroke-linecap="round" stroke-linejoin="round"/>
<path d="M14 18.75V17.2159C14 16.142 14.9375 15.375 15.875 15.375" stroke="white" stroke-width="1.5" stroke-linecap="round" stroke-linejoin="round"/>
<path fill-rule="evenodd" clip-rule="evenodd" d="M7.05487 5.25V5.25C6.07496 5.25 5.37503 4.45588 5.37503 3.66176V2.33824C5.37503 1.41176 6.21495 0.75 7.05487 0.75V0.75C8.03478 0.75 8.73471 1.54412 8.73471 2.33824V3.66176C8.8747 4.58824 8.03478 5.25 7.05487 5.25Z" stroke="white" stroke-width="1.5" stroke-linecap="round" stroke-linejoin="round"/>
<path fill-rule="evenodd" clip-rule="evenodd" d="M15.3125 5.25V5.25C14.3281 5.25 13.625 4.45588 13.625 3.66176V2.33824C13.625 1.41176 14.4687 0.75 15.3125 0.75V0.75C16.2968 0.75 17 1.54412 17 2.33824V3.66176C17 4.58824 16.2968 5.25 15.3125 5.25Z" stroke="white" stroke-width="1.5" stroke-linecap="round" stroke-linejoin="round"/>
<path fill-rule="evenodd" clip-rule="evenodd" d="M24.3125 5.25V5.25C23.3281 5.25 22.625 4.45588 22.625 3.66176V2.33824C22.625 1.41176 23.4687 0.75 24.3125 0.75V0.75C25.2968 0.75 26 1.54412 26 2.33824V3.66176C26 4.58824 25.2968 5.25 24.3125 5.25Z" stroke="white" stroke-width="1.5" stroke-linecap="round" stroke-linejoin="round"/>
<path fill-rule="evenodd" clip-rule="evenodd" d="M32.9298 5.25V5.25C31.9499 5.25 31.2499 4.45588 31.2499 3.66176V2.33824C31.2499 1.41176 32.0899 0.75 32.9298 0.75V0.75C33.9097 0.75 34.6096 1.54412 34.6096 2.33824V3.66176C34.7496 4.58824 33.9097 5.25 32.9298 5.25Z" stroke="white" stroke-width="1.5" stroke-linecap="round" stroke-linejoin="round"/>
<path fill-rule="evenodd" clip-rule="evenodd" d="M30.3124 8.25V8.25C31.2968 8.25 31.9999 9.04412 31.9999 9.83824V11.1618C31.9999 12.0882 31.1561 12.75 30.3124 12.75V12.75C29.328 12.75 28.6249 11.9559 28.6249 11.1618V9.83824C28.6249 8.91176 29.328 8.25 30.3124 8.25Z" stroke="white" stroke-width="1.5" stroke-linecap="round" stroke-linejoin="round"/>
<path d="M34.4375 12.75V8.25" stroke="white" stroke-width="1.5" stroke-linecap="round" stroke-linejoin="round"/>
<path fill-rule="evenodd" clip-rule="evenodd" d="M22.0625 8.25V8.25C23.0468 8.25 23.75 9.04412 23.75 9.83824V11.1618C23.75 12.0882 22.9062 12.75 22.0625 12.75V12.75C21.0781 12.75 20.375 11.9559 20.375 11.1618V9.83824C20.375 8.91176 21.0781 8.25 22.0625 8.25Z" stroke="white" stroke-width="1.5" stroke-linecap="round" stroke-linejoin="round"/>
<path d="M26.1876 12.75V8.25" stroke="white" stroke-width="1.5" stroke-linecap="round" stroke-linejoin="round"/>
<path fill-rule="evenodd" clip-rule="evenodd" d="M13.4452 8.25V8.25C14.4251 8.25 15.125 9.04412 15.125 9.83824V11.1618C15.125 12.0882 14.2851 12.75 13.4452 12.75V12.75C12.4653 12.75 11.7653 11.9559 11.7653 11.1618V9.83824C11.6253 8.91176 12.4653 8.25 13.4452 8.25Z" stroke="white" stroke-width="1.5" stroke-linecap="round" stroke-linejoin="round"/>
<path d="M17.5626 12.75V8.25" stroke="white" stroke-width="1.5" stroke-linecap="round" stroke-linejoin="round"/>
<path fill-rule="evenodd" clip-rule="evenodd" d="M4.4375 8.25V8.25C5.42188 8.25 6.125 9.04412 6.125 9.83824V11.1618C6.125 12.0882 5.28125 12.75 4.4375 12.75V12.75C3.45312 12.75 2.75 11.9559 2.75 11.1618V9.83824C2.75 8.91176 3.45312 8.25 4.4375 8.25Z" stroke="white" stroke-width="1.5" stroke-linecap="round" stroke-linejoin="round"/>
<path d="M8.93735 12.75V8.25" stroke="white" stroke-width="1.5" stroke-linecap="round" stroke-linejoin="round"/>
<path fill-rule="evenodd" clip-rule="evenodd" d="M7.05487 19.875V19.875C6.07496 19.875 5.37503 19.0809 5.37503 18.2868V16.9632C5.37503 16.0368 6.21495 15.375 7.05487 15.375V15.375C8.03478 15.375 8.73471 16.1691 8.73471 16.9632V18.2868C8.8747 19.2132 8.03478 19.875 7.05487 19.875Z" stroke="white" stroke-width="1.5" stroke-linecap="round" stroke-linejoin="round"/>
<path fill-rule="evenodd" clip-rule="evenodd" d="M4.4375 23.25V23.25C5.42188 23.25 6.125 24.0441 6.125 24.8382V26.1618C6.125 27.0882 5.28125 27.75 4.4375 27.75V27.75C3.45312 27.75 2.75 26.9559 2.75 26.1618V24.8382C2.75 24.0441 3.45312 23.25 4.4375 23.25Z" stroke="white" stroke-width="1.5" stroke-linecap="round" stroke-linejoin="round"/>
<path fill-rule="evenodd" clip-rule="evenodd" d="M7.05487 35.25V35.25C6.07496 35.25 5.37503 34.4559 5.37503 33.6618V32.3382C5.37503 31.4118 6.21495 30.75 7.05487 30.75V30.75C8.03478 30.75 8.73471 31.5441 8.73471 32.3382V33.6618C8.8747 34.4559 8.03478 35.25 7.05487 35.25Z" stroke="white" stroke-width="1.5" stroke-linecap="round" stroke-linejoin="round"/>
<path d="M2.93744 0.75V5.25" stroke="white" stroke-width="1.5" stroke-linecap="round" stroke-linejoin="round"/>
<path d="M11.1873 0.75V5.25" stroke="white" stroke-width="1.5" stroke-linecap="round" stroke-linejoin="round"/>
<path d="M20.1874 0.75V5.25" stroke="white" stroke-width="1.5" stroke-linecap="round" stroke-linejoin="round"/>
<path d="M28.4376 0.75V5.25" stroke="white" stroke-width="1.5" stroke-linecap="round" stroke-linejoin="round"/>
<path d="M2.93744 15.375V19.875" stroke="white" stroke-width="1.5" stroke-linecap="round" stroke-linejoin="round"/>
<path d="M11.1873 15.375V19.875" stroke="white" stroke-width="1.5" stroke-linecap="round" stroke-linejoin="round"/>
<path d="M8.93735 27.75V22.5" stroke="white" stroke-width="1.5" stroke-linecap="round" stroke-linejoin="round"/>
<path d="M2.93744 30V35.25" stroke="white" stroke-width="1.5" stroke-linecap="round" stroke-linejoin="round"/>
<path d="M11.1873 30V35.25" stroke="white" stroke-width="1.5" stroke-linecap="round" stroke-linejoin="round"/>
</svg>
