<svg width="37" height="37" viewBox="0 0 37 37" fill="none" xmlns="http://www.w3.org/2000/svg">
<path d="M27.0499 20.65V1H10.9999V20.65L14.8999 24.7H23.1499L27.0499 20.65Z" stroke="white" stroke-width="1.5" stroke-linecap="round" stroke-linejoin="round"/>
<path d="M10.9998 5.5H16.9998" stroke="white" stroke-width="1.5" stroke-linecap="round" stroke-linejoin="round"/>
<path d="M10.9997 9.54688H16.9997" stroke="white" stroke-width="1.5" stroke-linecap="round" stroke-linejoin="round"/>
<path d="M10.9997 13.4492H16.9997" stroke="white" stroke-width="1.5" stroke-linecap="round" stroke-linejoin="round"/>
<path d="M10.9997 17.3516H16.9997" stroke="white" stroke-width="1.5" stroke-linecap="round" stroke-linejoin="round"/>
<path d="M11.5999 21.25H16.9999" stroke="white" stroke-width="1.5" stroke-linecap="round" stroke-linejoin="round"/>
<path d="M18.9497 27.3984C18.9497 27.3984 18.9497 33.0984 18.9497 33.6984C18.9497 34.4484 19.3997 35.4984 20.4497 35.4984C21.4997 35.4984 23.7497 35.4984 23.7497 35.4984" stroke="white" stroke-width="1.5" stroke-linecap="round" stroke-linejoin="round"/>
<path d="M10.9998 14.9492C12.6498 14.9492 13.6998 16.5992 16.2498 16.7492C18.9498 16.8992 19.5498 14.9492 22.2498 14.9492C24.9498 14.9492 26.8998 16.5992 26.8998 17.9492" stroke="white" stroke-width="1.5" stroke-linecap="round" stroke-linejoin="round"/>
<path d="M21.9499 24.6992H16.2499V27.2492H21.9499V24.6992Z" stroke="white" stroke-width="1.5" stroke-linecap="round" stroke-linejoin="round"/>
</svg>
