<svg width="37" height="36" viewBox="0 0 37 36" fill="none" xmlns="http://www.w3.org/2000/svg">
<path fill-rule="evenodd" clip-rule="evenodd" d="M13.688 18.6875C15.9663 18.6875 17.813 20.5341 17.813 22.8125C17.813 25.0909 15.9663 26.9375 13.688 26.9375C11.4096 26.9375 9.56296 25.0909 9.56296 22.8125C9.56296 20.5341 11.4096 18.6875 13.688 18.6875Z" stroke="white" stroke-width="1.5" stroke-linecap="round" stroke-linejoin="round"/>
<path fill-rule="evenodd" clip-rule="evenodd" d="M22.4877 20.8844L24.6877 19.6469L21.9377 14.8344L19.7377 16.0719C18.7752 15.2469 17.6752 14.5594 16.4377 14.1469V11.6719H10.9377V14.1469C9.70021 14.5594 8.60021 15.2469 7.63771 16.0719L5.43771 14.8344L2.68771 19.6469L4.88771 20.8844C4.61271 22.1219 4.61271 23.3594 4.88771 24.5969L2.68771 25.8344L5.43771 30.6469L7.63771 29.4094C8.60021 30.2344 9.70021 30.9219 10.9377 31.3344V33.8094H16.4377V31.3344C17.6752 30.9219 18.7752 30.2344 19.7377 29.4094L21.9377 30.6469L24.6877 25.8344L22.4877 24.5969C22.6252 23.4969 22.6252 22.2594 22.4877 20.8844Z" stroke="white" stroke-width="1.5" stroke-linecap="round" stroke-linejoin="round"/>
<path fill-rule="evenodd" clip-rule="evenodd" d="M28.1255 6.3125C29.264 6.3125 30.188 7.23512 30.188 8.375C30.188 9.5135 29.264 10.4375 28.1255 10.4375C26.9856 10.4375 26.063 9.5135 26.063 8.375C26.063 7.23512 26.9856 6.3125 28.1255 6.3125Z" stroke="white" stroke-width="1.5" stroke-linecap="round" stroke-linejoin="round"/>
<path fill-rule="evenodd" clip-rule="evenodd" d="M32.8002 7.275L34.1752 6.45L32.8002 4.1125L31.4252 4.9375C30.8752 4.3875 30.3252 4.1125 29.5002 3.8375V2.1875H26.7502V3.8375C26.0627 4.1125 25.3752 4.3875 24.8252 4.9375L23.4502 4.1125L22.0752 6.45L23.4502 7.275C23.3127 7.9625 23.3127 8.7875 23.4502 9.475L22.0752 10.3L23.4502 12.6375L24.8252 11.8125C25.3752 12.3625 26.0627 12.775 26.7502 12.9125V14.5625H29.5002V12.9125C30.1877 12.6375 30.8752 12.3625 31.4252 11.8125L32.8002 12.6375L34.1752 10.3L32.8002 9.475C32.9377 8.7875 32.9377 7.9625 32.8002 7.275Z" stroke="white" stroke-width="1.5" stroke-linecap="round" stroke-linejoin="round"/>
</svg>
