<?xml version="1.0" encoding="UTF-8"?>
<svg width="21px" height="18px" viewBox="0 0 21 18" version="1.1" xmlns="http://www.w3.org/2000/svg" xmlns:xlink="http://www.w3.org/1999/xlink">
    <!-- Generator: Sketch 58 (84663) - https://sketch.com -->
    <title>Shape</title>
    <desc>Created with Sketch.</desc>
    <g id="Symbols" stroke="none" stroke-width="1" fill="none" fill-rule="evenodd">
        <g id="Navigation-/-Global-Footer" transform="translate(-479.000000, -243.000000)" fill="#FFFFFF">
            <g id="social" transform="translate(438.000000, 243.000000)">
                <path d="M59.526149,2.84573162 C60.4160944,2.28412538 61.0989611,1.39361548 61.41944,0.332803698 C60.5861948,0.85410949 59.6654341,1.23111368 58.6830428,1.43521595 C57.899102,0.551206125 56.7786582,0 55.5386512,0 C53.1597112,0 51.231907,2.03452261 51.231907,4.54355048 C51.231907,4.89975444 51.2676528,5.2468583 51.3416094,5.57836198 C47.762106,5.38855987 44.5881317,3.58153979 42.4618771,0.83070923 C42.0908611,1.50411671 41.8788519,2.28412538 41.8788519,3.11613462 C41.8788519,4.69175213 42.6393731,6.08276759 43.7955626,6.89917666 C43.0892763,6.8757764 42.4248987,6.6690741 41.8431062,6.33107035 L41.8431062,6.38697097 C41.8431062,8.58919544 43.3271703,10.4261158 45.3005811,10.8421205 C44.9381933,10.9487217 44.558549,11.0020222 44.1641134,11.0020222 C43.8867758,11.0020222 43.6156013,10.9747219 43.3542877,10.9214213 C43.9015672,12.7258414 45.4928685,14.041456 47.3787639,14.0765564 C45.9033281,15.29597 44.0457827,16.021378 42.0279979,16.021378 C41.6804015,16.021378 41.3365029,16.0018778 41,15.9589773 C42.9068498,17.2472916 45.1711569,18 47.6043317,18 C55.5300229,18 59.8614193,11.0761231 59.8614193,5.07135635 C59.8614193,4.87375415 59.858954,4.67745197 59.8503258,4.48374982 C60.6921993,3.8428427 61.4243705,3.0420338 62,2.13072367 C61.2271527,2.49212769 60.3963726,2.73653041 59.526149,2.84573162 Z" id="Shape"></path>
            </g>
        </g>
    </g>
</svg>