<svg width="37" height="37" viewBox="0 0 37 37" fill="none" xmlns="http://www.w3.org/2000/svg">
<path fill-rule="evenodd" clip-rule="evenodd" d="M1.24997 35.3984H7.24997V24.8984H1.24997V35.3984Z" stroke="#F9FAFA" stroke-width="1.5" stroke-linecap="round" stroke-linejoin="round"/>
<path d="M7.24959 33.8984H32.7496C32.7496 31.6484 27.4996 29.3984 21.4996 29.3984H10.9996" stroke="#F9FAFA" stroke-width="1.5" stroke-linecap="round" stroke-linejoin="round"/>
<path d="M7.24959 26.4023H12.4996C16.0996 26.4023 17.7496 28.6523 18.4996 29.4023" stroke="#F9FAFA" stroke-width="1.5" stroke-linecap="round" stroke-linejoin="round"/>
<path fill-rule="evenodd" clip-rule="evenodd" d="M23.75 8.40234C26.2355 8.40234 28.25 10.4183 28.25 12.9023C28.25 15.3878 26.2355 17.4023 23.75 17.4023C21.2645 17.4023 19.25 15.3878 19.25 12.9023C19.25 10.4183 21.2645 8.40234 23.75 8.40234Z" stroke="#F9FAFA" stroke-width="1.5" stroke-linecap="round" stroke-linejoin="round"/>
<path fill-rule="evenodd" clip-rule="evenodd" d="M33.351 10.8L35.751 9.45L32.751 4.2L30.351 5.55C29.301 4.6485 28.101 3.8985 26.901 3.45V0.75H20.901V3.45C19.551 3.9 18.351 4.65 17.451 5.55L15.051 4.2L12.051 9.45L14.451 10.8C14.151 12.1485 14.151 13.5 14.451 14.85L12.051 16.2L15.051 21.45L17.451 20.1C18.501 21 19.701 21.75 20.901 22.2V24.8985H26.901V22.2C28.251 21.75 29.451 21 30.351 20.1L32.751 21.45L35.751 16.2L33.351 14.85C33.501 13.6485 33.651 12.3 33.351 10.8Z" stroke="#F9FAFA" stroke-width="1.5" stroke-linecap="round" stroke-linejoin="round"/>
</svg>
