<?xml version="1.0" encoding="UTF-8"?>
<svg class="logotype" version="1.1" xmlns="http://www.w3.org/2000/svg" xmlns:xlink="http://www.w3.org/1999/xlink">
	<path style="fill:#46B555;" d="M36.4,6c-4-3.9-9.4-6-15.1-6c-3,0-5.8,0.5-8.4,1.6S8,4.1,6.1,6s-3.4,4.1-4.5,6.6
			c-2.2,5-2.2,11.6,0,16.6c1.1,2.6,2.6,4.8,4.5,6.7s4.2,3.3,6.7,4.4c5,2.1,11.7,2.1,16.8,0c2.6-1.1,4.8-2.5,6.7-4.4s3.4-4.1,4.5-6.7
			c2.2-5,2.2-11.6,0-16.6C39.8,10.1,38.3,7.9,36.4,6z M35,14.5c-0.2,0.4-0.4,0.8-0.6,1.2c0-0.1-0.1-0.1-0.1-0.2
			c-1.1-2.7-3.1-5-5.6-6.5c-0.1-0.1-0.3-0.1-0.5,0s-0.5,0.3-0.7,0.5c-0.3,0.3-0.6,0.7-0.7,1.2c-0.1,0.3-0.2,0.6-0.2,0.9
			c0,0.2,0.1,0.4,0.2,0.4c0.7,0.4,1.4,0.9,2,1.5c1,0.9,1.7,2.1,2.3,3.3c1.1,2.5,1.1,5.8,0,8.3c-0.5,1.2-1.3,2.4-2.2,3.3
			c-1,0.9-2.1,1.7-3.4,2.2c-2.5,1.1-5.9,1.1-8.4,0c-1.3-0.5-2.4-1.3-3.4-2.2c-1-0.9-1.7-2.1-2.3-3.3c-1.1-2.5-1.1-5.8,0-8.3
			c0.5-1.2,1.3-2.4,2.3-3.3c1-0.9,2.1-1.7,3.4-2.2c1.3-0.6,2.9-0.8,4.4-0.8c-0.3,1.8-0.1,3.7,0.5,5.3c0.8,2.2,2.5,3.9,4.7,4.9l0,0
			c1,0.4,2,0.6,3,0.7c0.1,0,0.2,0,0.3-0.1c0.1-0.1,0.1-0.2,0.1-0.3c0-1-0.2-1.9-0.5-2.9c-0.1-0.2-0.2-0.3-0.4-0.3
			c-0.4-0.1-0.9-0.2-1.3-0.4c-1.3-0.5-2.3-1.6-2.8-2.9s-0.5-3.1,0-4.5c0.2-0.7,0.6-1.3,1.1-1.8s1.1-0.9,1.7-1.1c1.3-0.5,3-0.5,4.2,0
			c0.6,0.3,1.2,0.7,1.7,1.1c0.5,0.5,0.9,1.1,1.1,1.8C35.6,11.3,35.6,13.2,35,14.5z"></path>
</svg>