<?xml version="1.0" encoding="utf-8"?>
<!-- Generator: Adobe Illustrator 25.0.1, SVG Export Plug-In . SVG Version: 6.00 Build 0)  -->
<svg version="1.1" id="Layer_1" xmlns="http://www.w3.org/2000/svg" xmlns:xlink="http://www.w3.org/1999/xlink" x="0px" y="0px"
	 viewBox="0 0 173 42" style="enable-background:new 0 0 173 42;" xml:space="preserve">
<style type="text/css">
	.st0{fill:#46B555;}
</style>
<desc>Created with Sketch.</desc>
<g id="omnicell-logo-r-hz-grn-rgb__x3C_Group_x3E_">
	<path class="st0" d="M36.4,6c-4-3.9-9.4-6.1-15.2-6c-3,0-5.8,0.5-8.4,1.6C10.3,2.7,8.1,4.1,6.1,6c-1.9,1.9-3.4,4.1-4.5,6.7
		c-2.2,5-2.2,11.6,0,16.6c1.1,2.6,2.6,4.8,4.5,6.7c1.9,1.9,4.2,3.4,6.7,4.4c5.1,2.1,11.7,2.1,16.8,0c2.6-1.1,4.8-2.5,6.7-4.4
		c1.9-1.9,3.4-4.1,4.5-6.7c2.2-5,2.2-11.6,0-16.6C39.9,10.1,38.4,7.9,36.4,6z M35.1,14.5c-0.2,0.4-0.4,0.8-0.6,1.2
		c0-0.1-0.1-0.1-0.1-0.2c-0.7-1.7-1.7-3.2-3-4.5c-0.8-0.8-1.7-1.4-2.6-2c-0.1-0.1-0.3-0.1-0.5,0c-0.2,0.1-0.5,0.3-0.7,0.5
		c-0.3,0.3-0.6,0.7-0.7,1.2c-0.1,0.3-0.2,0.6-0.2,0.9c0,0.2,0.1,0.4,0.2,0.4c0.7,0.4,1.4,0.9,2,1.5c1,0.9,1.7,2.1,2.3,3.3
		c1.1,2.5,1.1,5.8,0,8.3c-0.5,1.3-1.3,2.4-2.3,3.3c-1,0.9-2.1,1.7-3.4,2.2c-2.5,1.1-5.9,1.1-8.4,0c-1.3-0.5-2.4-1.3-3.4-2.2
		c-1-0.9-1.7-2.1-2.3-3.3c-1.1-2.5-1.1-5.8,0-8.3c0.5-1.3,1.3-2.4,2.3-3.3c1-0.9,2.1-1.7,3.4-2.2c1.3-0.6,2.9-0.8,4.4-0.8
		c-0.3,1.8-0.1,3.7,0.5,5.3c0.4,1.1,1.1,2.1,1.9,2.9c0.8,0.8,1.8,1.5,2.8,1.9v0c1,0.4,2,0.6,3,0.7c0.3,0,0.5-0.2,0.5-0.4
		c0-1-0.2-2-0.5-2.9c-0.1-0.2-0.2-0.3-0.4-0.3c-0.4-0.1-0.9-0.2-1.3-0.4c-0.6-0.3-1.2-0.7-1.7-1.2c-0.5-0.5-0.9-1.1-1.1-1.8
		c-0.5-1.3-0.5-3.1,0-4.5c0.3-0.7,0.6-1.3,1.1-1.8c0.5-0.5,1-0.9,1.7-1.1c1.3-0.5,3-0.5,4.2,0c0.6,0.3,1.2,0.7,1.7,1.1
		c0.5,0.5,0.8,1.1,1.1,1.8C35.6,11.4,35.6,13.2,35.1,14.5z"/>
	<path class="st0" d="M69.7,13.6c-1-0.9-2.1-1.7-3.4-2.2c-1.3-0.5-2.7-0.8-4.2-0.8c-1.5,0-2.9,0.3-4.2,0.8c-1.3,0.5-2.4,1.3-3.4,2.2
		c-1,0.9-1.7,2-2.3,3.3c-0.5,1.3-0.8,2.7-0.8,4.2c0,1.5,0.3,2.9,0.8,4.2c0.5,1.3,1.3,2.4,2.3,3.3c1,0.9,2.1,1.7,3.4,2.2
		c1.3,0.5,2.7,0.8,4.2,0.8c1.5,0,2.9-0.3,4.2-0.8c1.3-0.5,2.4-1.3,3.4-2.2c1-0.9,1.7-2,2.3-3.3c0.5-1.3,0.8-2.7,0.8-4.2
		c0-1.5-0.3-2.9-0.8-4.2C71.4,15.6,70.6,14.5,69.7,13.6z M68.6,24c-0.4,0.9-0.8,1.7-1.5,2.3c-0.6,0.6-1.4,1.2-2.2,1.5
		c-0.9,0.4-1.8,0.6-2.8,0.6c-1,0-1.9-0.2-2.8-0.6c-0.9-0.4-1.6-0.9-2.2-1.5c-0.6-0.6-1.1-1.4-1.5-2.3c-0.3-0.9-0.5-1.9-0.5-2.9
		c0-1.1,0.2-2,0.5-3c0.3-0.9,0.8-1.7,1.5-2.3c0.6-0.6,1.4-1.2,2.2-1.5c0.9-0.4,1.8-0.5,2.8-0.5c1,0,1.9,0.2,2.8,0.5
		c0.9,0.4,1.6,0.9,2.2,1.5c0.6,0.6,1.1,1.4,1.5,2.3c0.4,0.9,0.5,1.9,0.5,3C69.1,22.1,68.9,23.1,68.6,24z"/>
	<path class="st0" d="M97.5,17.4c-0.6-0.5-1.2-0.8-2-1C94.7,16.1,93.9,16,93,16c-1.2,0-2.2,0.2-3.2,0.7c-0.9,0.4-1.7,1.1-2.2,2
		c-0.6-0.9-1.3-1.5-2.3-2c-0.9-0.4-2-0.7-3.2-0.7c-0.9,0-1.8,0.1-2.5,0.4c-0.8,0.2-1.4,0.6-2,1.1c-0.6,0.5-1,1-1.4,1.7
		c-0.3,0.7-0.5,1.5-0.5,2.4V31H79v-8.3c0-1.3,0.3-2.3,0.9-2.9c0.6-0.6,1.4-0.9,2.4-0.9c1,0,1.8,0.3,2.5,1c0.7,0.6,1,1.7,1,3.1V31
		h3.3v-7.9c0-1.4,0.3-2.5,1-3.1c0.7-0.6,1.5-1,2.5-1c1,0,1.8,0.3,2.4,0.9c0.6,0.6,0.9,1.5,0.9,2.9V31h3.3v-9.4
		c0-0.9-0.2-1.7-0.5-2.4C98.5,18.5,98.1,17.9,97.5,17.4z"/>
	<path class="st0" d="M114.9,17.7c-0.6-0.5-1.4-0.9-2.3-1.2c-0.9-0.3-1.8-0.4-2.8-0.4c-1,0-2,0.1-2.8,0.4c-0.9,0.3-1.6,0.7-2.2,1.2
		c-0.6,0.5-1.1,1.2-1.5,1.9c-0.4,0.8-0.5,1.6-0.5,2.6V31h3.3v-8c0-1.3,0.3-2.3,0.9-3c0.6-0.7,1.6-1,2.8-1c1.2,0,2.2,0.3,2.8,1
		c0.6,0.7,1,1.7,1,3v8h3.3v-8.8c0-1-0.2-1.8-0.5-2.6C116,18.8,115.5,18.2,114.9,17.7z"/>
	<path class="st0" d="M122,16.4c-0.6,0-1,0.1-1.3,0.4c-0.3,0.2-0.5,0.6-0.5,1.2V31h3.3V16.7c-0.1,0-0.3-0.1-0.6-0.2
		C122.7,16.5,122.3,16.4,122,16.4z"/>
	<path class="st0" d="M121.9,9.9c-0.7,0-1.2,0.2-1.5,0.5c-0.4,0.4-0.5,1-0.5,1.5s0.1,1.1,0.5,1.5c0.3,0.4,0.8,0.5,1.5,0.5
		c0.7,0,1.2-0.2,1.5-0.5c0.4-0.4,0.5-1,0.5-1.5s-0.1-1.1-0.5-1.5C123,10.1,122.5,9.9,121.9,9.9z"/>
	<path class="st0" d="M137.2,28.1c-0.6,0.3-1.4,0.4-2.3,0.4c-0.7,0-1.3-0.1-1.9-0.3c-0.6-0.2-1.1-0.5-1.5-0.9
		c-0.4-0.4-0.8-0.9-1-1.5c-0.3-0.6-0.4-1.3-0.4-2.2c0-0.8,0.1-1.5,0.4-2.1c0.2-0.6,0.6-1.1,1-1.5c0.4-0.4,0.9-0.7,1.5-0.9
		c0.6-0.2,1.2-0.3,1.8-0.3c1,0,1.8,0.2,2.4,0.5c0.7,0.3,1.2,0.6,1.5,0.9c0.2-0.2,0.5-0.4,0.7-0.8c0.3-0.3,0.4-0.7,0.4-1.1
		c0-0.3-0.1-0.6-0.3-0.9c-0.2-0.3-0.5-0.6-0.9-0.8c-0.4-0.2-1-0.4-1.6-0.6c-0.7-0.2-1.5-0.2-2.4-0.2c-1.1,0-2.2,0.2-3.2,0.5
		c-1,0.3-1.8,0.8-2.5,1.5c-0.7,0.7-1.3,1.5-1.7,2.4c-0.4,1-0.6,2.1-0.6,3.3c0,1.2,0.2,2.3,0.6,3.3c0.4,0.9,1,1.7,1.7,2.4
		c0.7,0.6,1.6,1.1,2.5,1.5c0.9,0.3,2,0.5,3.1,0.5c0.7,0,1.3,0,1.9-0.1c0.6-0.1,1-0.2,1.5-0.4c0.4-0.1,0.8-0.3,1.2-0.5
		c0.3-0.2,0.6-0.3,0.9-0.5l-1.4-2.5C138.2,27.6,137.8,27.8,137.2,28.1z"/>
	<path class="st0" d="M153.6,17.5c-0.5-0.4-1.2-0.8-2-1c-0.8-0.3-1.7-0.4-2.7-0.4c-1.1,0-2.2,0.2-3.2,0.6c-1,0.4-1.8,0.9-2.5,1.6
		c-0.7,0.7-1.3,1.5-1.7,2.5c-0.4,1-0.6,2-0.6,3.2c0,1.2,0.2,2.3,0.6,3.2c0.4,0.9,1,1.7,1.7,2.4c0.7,0.6,1.5,1.1,2.5,1.5
		c0.9,0.3,2,0.5,3,0.5c0.8,0,1.5-0.1,2.1-0.2c0.6-0.1,1.2-0.3,1.7-0.4c0.5-0.2,0.9-0.3,1.2-0.5s0.6-0.3,0.7-0.4l-1.2-2.3
		c-0.1,0.1-0.3,0.1-0.5,0.3c-0.2,0.1-0.5,0.2-0.9,0.3c-0.3,0.1-0.7,0.2-1.1,0.3c-0.4,0.1-0.9,0.1-1.4,0.1c-1.5,0-2.6-0.3-3.4-0.9
		c-0.8-0.6-1.3-1.4-1.4-2.4c0.4,0,0.8,0,1.1,0c0.3,0,0.7,0,1.1,0c1.7,0,3-0.1,4.1-0.3c1.1-0.2,1.9-0.5,2.6-0.9
		c0.6-0.4,1.1-0.9,1.3-1.4c0.3-0.6,0.4-1.2,0.4-1.8c0-0.7-0.1-1.3-0.4-1.9C154.5,18.4,154.1,17.9,153.6,17.5z M151.8,21.6
		c-0.1,0.3-0.4,0.5-0.7,0.7c-0.4,0.2-0.9,0.4-1.5,0.5c-0.7,0.1-1.5,0.2-2.6,0.2c-0.4,0-0.8,0-1.2,0s-0.8,0-1.3,0
		c0-0.6,0.1-1.1,0.3-1.7c0.2-0.5,0.5-1,0.9-1.4c0.4-0.4,0.8-0.8,1.4-1c0.5-0.3,1.2-0.4,1.9-0.4c0.9,0,1.6,0.2,2.2,0.6
		c0.6,0.4,0.9,0.9,0.9,1.7C152,21.1,151.9,21.4,151.8,21.6z"/>
	<path class="st0" d="M159.9,9.6c-0.6,0-1,0.1-1.3,0.4c-0.3,0.3-0.5,0.6-0.5,1.2V31h3.3V9.9c-0.1,0-0.3-0.1-0.6-0.2
		C160.5,9.6,160.2,9.6,159.9,9.6z"/>
	<path class="st0" d="M167.2,9.7c-0.3-0.1-0.6-0.1-1-0.1c-0.6,0-1,0.1-1.3,0.4c-0.3,0.3-0.5,0.6-0.5,1.2V31h3.3V9.9
		C167.7,9.9,167.5,9.8,167.2,9.7z"/>
	<g>
		<path class="st0" d="M169.7,12.9c-0.3-0.2-0.5-0.4-0.7-0.6c-0.2-0.3-0.2-0.6-0.2-0.9c0-0.3,0.1-0.6,0.2-0.9
			c0.2-0.3,0.4-0.5,0.7-0.6c0.3-0.2,0.6-0.2,0.9-0.2s0.6,0.1,0.9,0.2c0.3,0.2,0.5,0.4,0.7,0.6c0.2,0.3,0.2,0.6,0.2,0.9
			c0,0.3-0.1,0.6-0.2,0.9c-0.2,0.3-0.4,0.5-0.7,0.6c-0.3,0.2-0.6,0.2-0.9,0.2S170,13.1,169.7,12.9z M171.4,12.7
			c0.2-0.1,0.4-0.3,0.5-0.5c0.1-0.2,0.2-0.5,0.2-0.8c0-0.3-0.1-0.5-0.2-0.8c-0.1-0.2-0.3-0.4-0.5-0.5c-0.2-0.1-0.5-0.2-0.8-0.2
			c-0.3,0-0.5,0.1-0.8,0.2c-0.2,0.1-0.4,0.3-0.5,0.5c-0.1,0.2-0.2,0.5-0.2,0.8c0,0.3,0.1,0.5,0.2,0.8c0.1,0.2,0.3,0.4,0.5,0.5
			c0.2,0.1,0.5,0.2,0.8,0.2C170.9,12.9,171.2,12.8,171.4,12.7z M170,10.4h0.7c0.2,0,0.4,0.1,0.5,0.2c0.1,0.1,0.2,0.3,0.2,0.4
			c0,0.1,0,0.2-0.1,0.3c-0.1,0.1-0.2,0.2-0.3,0.2l0.5,0.8h-0.4l-0.4-0.7h-0.3v0.7H170V10.4z M170.7,11.3c0.1,0,0.2,0,0.2-0.1
			c0.1-0.1,0.1-0.1,0.1-0.2c0-0.1,0-0.1-0.1-0.2c-0.1,0-0.1-0.1-0.2-0.1h-0.4v0.6H170.7z"/>
	</g>
</g>
</svg>
