<svg width="44" height="43" viewBox="0 0 44 43" fill="none" xmlns="http://www.w3.org/2000/svg">
<path fill-rule="evenodd" clip-rule="evenodd" d="M34.7317 10.0665C37.8687 13.1779 38.0023 18.1185 35.0655 21.3901L27.1118 12.9766C26.7856 12.6317 26.3272 12.4266 25.8521 12.4125C25.8354 12.4125 25.8174 12.4112 25.7994 12.4112C25.3397 12.4112 24.9031 12.5856 24.5641 12.9035L20.4794 16.752C20.08 17.1276 19.5227 17.3301 18.9872 17.3173C18.4299 17.3019 17.9124 17.0686 17.5298 16.661C17.3551 16.4763 17.2601 16.2251 17.2678 15.97C17.2755 15.711 17.3834 15.4726 17.5722 15.2957L23.262 9.93193C26.5147 6.8565 31.5535 6.91547 34.7317 10.0665ZM16.754 29.8854L19.5945 27.2074C20.216 26.6651 21.1482 26.7074 21.7132 27.3061C22.2808 27.906 22.2718 28.838 21.6965 29.4213L18.8522 32.1019C18.241 32.6801 17.2702 32.6519 16.6911 32.0416L16.6461 31.9942C16.1171 31.3801 16.1595 30.4469 16.754 29.8854ZM13.6851 26.6385L16.5294 23.9567C17.1432 23.3823 18.1127 23.408 18.6906 24.0195C19.2684 24.6323 19.2402 25.6001 18.6264 26.1757L15.7833 28.8589C15.1683 29.4345 14.1988 29.4063 13.6222 28.7935L13.5734 28.7422C13.0469 28.1295 13.0906 27.1987 13.6851 26.6385ZM10.6148 23.3929L13.4591 20.711C14.0716 20.1469 15.0347 20.179 15.6074 20.7841C16.1801 21.3904 16.157 22.3532 15.5573 22.9301L12.7143 25.6119C12.1005 26.1875 11.1323 26.1606 10.5519 25.5491C9.97662 24.9376 10.0049 23.9697 10.6148 23.3929ZM19.8243 33.1351L22.6673 30.4532C22.9601 30.184 23.3325 30.0507 23.7036 30.0507C24.1106 30.0507 24.5177 30.211 24.8169 30.5276C25.3896 31.134 25.3665 32.098 24.7668 32.6736L21.9212 35.3555C21.5257 35.7285 20.9569 35.8631 20.4342 35.7067C19.9129 35.5516 19.511 35.126 19.3851 34.5966C19.2593 34.0684 19.4275 33.5082 19.8243 33.1351ZM24.4112 17.6561C24.1287 17.9228 24.1146 18.3715 24.3817 18.6548L31.6741 26.3658C32.0478 26.7606 32.1839 27.3311 32.0286 27.8503C31.8706 28.3708 31.4443 28.7733 30.9152 28.8977C30.3888 29.0233 29.825 28.8554 29.4514 28.4618L22.1589 20.7482C21.9868 20.5649 21.7262 20.4893 21.4809 20.5457C21.2356 20.6047 21.0392 20.7893 20.966 21.0316C20.8954 21.2738 20.9583 21.5366 21.1303 21.7187L28.4202 29.4297C28.9377 29.9758 28.975 30.8334 28.5063 31.4219C28.0594 31.9834 27.2709 32.1551 26.6366 31.8436C26.7188 31.0539 26.4774 30.2617 25.9637 29.654C25.4244 29.0169 24.6372 28.64 23.8026 28.6208C23.7101 28.6195 23.6369 28.6208 23.574 28.6259C23.5817 28.5656 23.5894 28.4887 23.592 28.3951C23.6151 27.6106 23.33 26.8645 22.7907 26.2914C22.2578 25.7287 21.5079 25.3941 20.7361 25.3723C20.6411 25.3684 20.5666 25.3723 20.5037 25.3774C20.5114 25.3184 20.5191 25.2415 20.5217 25.1492C20.5448 24.3736 20.2533 23.607 19.7204 23.0442C19.1798 22.4738 18.4504 22.1469 17.6633 22.1238C17.5708 22.1238 17.4976 22.1251 17.4334 22.1302C17.4424 22.0687 17.4501 21.9943 17.4527 21.8994C17.4835 20.7085 16.8016 19.624 15.7127 19.1381C14.6251 18.6509 13.3589 18.8599 12.4883 19.6765L10.1179 21.911C9.97917 22.043 9.87259 22.143 9.79169 22.2212L9.75188 22.2584L9.08671 21.5546C7.57789 19.9573 6.78174 17.8677 6.84595 15.6717C6.91015 13.4769 7.82829 11.4373 9.42957 9.93232C10.9705 8.48114 12.966 7.69145 15.0745 7.69145C15.1567 7.69145 15.2389 7.69145 15.3223 7.69402C17.4681 7.75683 19.4649 8.63113 20.9621 10.1579L16.5975 14.2718C16.1403 14.7115 15.8758 15.3012 15.8514 15.9332C15.8257 16.978 16.4973 17.9318 17.6029 18.4228C18.9114 19.0035 20.4241 18.7497 21.4527 17.7792L25.5348 13.932C25.6093 13.8603 25.7197 13.8372 25.8135 13.8282C25.9149 13.8308 26.0125 13.8744 26.0819 13.9474L34.9242 23.3019C35.2054 23.5993 35.3531 23.9865 35.3416 24.3941C35.33 24.7954 35.1554 25.1838 34.8626 25.4595C34.5647 25.7402 34.173 25.8928 33.7685 25.8761C33.3679 25.8646 32.9788 25.6915 32.7027 25.3966L25.4116 17.6856C25.2831 17.5485 25.1085 17.469 24.921 17.4639C24.7258 17.469 24.5499 17.5254 24.4112 17.6561ZM35.9389 9.29951C34.1963 7.4522 31.7398 6.35099 29.1973 6.27536C26.606 6.18562 24.1649 7.13555 22.2914 8.90466L21.9935 9.18669C18.3286 5.43183 12.2908 5.29466 8.4577 8.9021C6.5829 10.6674 5.50682 13.0569 5.43106 15.6298C5.35658 18.204 6.28884 20.6513 8.05706 22.5242L8.91998 23.4396C8.55272 24.3779 8.69911 25.4497 9.31163 26.2612C9.90232 27.0419 10.8449 27.4803 11.8156 27.42C11.7155 28.2713 11.998 29.134 12.5912 29.7609C13.1832 30.3878 14.0294 30.7044 14.8847 30.6698C14.7845 31.5185 15.0683 32.38 15.6603 33.0094C16.2535 33.6363 17.0933 33.9734 17.9562 33.917C17.824 35.0964 18.4147 36.2438 19.4715 36.8155C19.9158 37.0578 20.3999 37.1758 20.8801 37.1758C21.6108 37.1758 22.3338 36.904 22.8936 36.3758C23.4959 35.8092 23.9774 35.3567 24.3665 34.9913C25.815 33.6337 25.9716 33.4876 26.1655 33.1722C27.1042 33.5786 28.1867 33.4645 29.0239 32.8671C29.8432 32.2812 30.2978 31.3236 30.2413 30.3288C31.0875 30.425 31.953 30.1417 32.5822 29.5494C33.2088 28.9558 33.5414 28.1136 33.4926 27.2598C34.6791 27.3944 35.8348 26.7957 36.4076 25.7266C36.9893 24.642 36.8339 23.3306 36.0287 22.4127C39.4496 18.704 39.4214 12.9749 35.9389 9.29951Z" fill="white"/>
</svg>
